Storyline

A thriller centered on an institutionalized young woman who becomes terrorized by a ghost. 

Converted from an itunes rental....


General

Format                           : AVI
Format/Info                      : Audio Video Interleave
File size                        : 639 MiB
Duration                         : 1h 28mn
Overall bit rate                 : 1 008 Kbps
Writing application              : Lavf52.22.1

Video

ID                               : 0
Format                           : MPEG-4 Visual
Format profile                   : Simple@L1
Format settings, BVOP            : No
Format settings, QPel            : No
Format settings, GMC             : No warppoints
Format settings, Matrix          : Default (H.263)
Codec ID                         : XVID
Codec ID/Hint                    : XviD
Duration                         : 1h 28mn
Bit rate                         : 868 Kbps
Width                            : 714 pixels
Height                           : 302 pixels
Display aspect ratio             : 2.35:1
Frame rate                       : 25.000 fps
Color space                      : YUV
Chroma subsampling               : 4:2:0
Bit depth                        : 8 bits
Scan type                        : Progressive
Bits/(Pixel*Frame)               : 0.161
Stream size                      : 550 MiB (86%)
Writing library                  : Lavc52.0.0
 
Audio

ID                               : 1
Format                           : MPEG Audio
Format version                   : Version 1
Format profile                   : Layer 3
Codec ID                         : 55
Codec ID/Hint                    : MP3
Duration                         : 1h 28mn
Bit rate mode                    : Constant
Bit rate                         : 128 Kbps
Channel(s)                       : 2 channels
Sampling rate                    : 44.1 KHz
Stream size                      : 81.1 MiB (13%)
Alignment                        : Aligned on interleaves
Interleave, duration             : 26 ms (0.65 video frame)


SCREENS:
 
http://noob.hu/2011/05/28/bscap0004_0.jpg 
http://noob.hu/2011/05/28/bscap0005_0.jpg 
http://noob.hu/2011/05/28/bscap0001_0.jpg


Seed and Enjoy :)